<svg width="100" height="24" viewBox="0 0 100 24" xmlns="http://www.w3.org/2000/svg">
  <!-- Apple Logo -->
  <path d="M17.5,12.5c0-2.3,1.9-3.4,2-3.4c-1.1-1.6-2.8-1.8-3.4-1.8c-1.4-0.1-2.8,0.8-3.5,0.8c-0.7,0-1.8-0.8-3-0.8c-1.5,0-2.9,0.9-3.7,2.3c-1.6,2.8-0.4,6.8,1.1,9c0.8,1.1,1.7,2.3,2.9,2.3c1.2,0,1.6-0.8,3-0.8c1.4,0,1.8,0.8,3,0.8c1.2,0,2-1.1,2.8-2.2c0.9-1.3,1.2-2.5,1.2-2.6C19.8,16.1,17.5,15.2,17.5,12.5z" fill="#1d1d1f"/>
  <!-- WATCH Text -->
  <text x="30" y="17" font-family="SF Pro Display, system-ui" font-weight="600" font-size="16" fill="#1d1d1f">WATCH</text>
</svg>
